<svg width="128" height="128" viewBox="0 0 128 128" fill="none" xmlns="http://www.w3.org/2000/svg">
  <rect width="128" height="128" rx="34" fill="#191919"/>
  <path d="M31 86V37h28.5c12 0 20.5 6.7 20.5 17.2 0 7.2-3.9 12.5-10.2 15.1L85 86H68.4L55.2 71.2H45.6V86H31Zm14.6-26.4h12.2c4.8 0 7.7-2.1 7.7-5.7s-2.9-5.7-7.7-5.7H45.6v11.4Z" fill="#C7F380"/>
  <path d="M89.7 88.2c-9.3 0-16.5-3.2-22-8.6l8-9.4c4.4 4 9.2 6.1 14.7 6.1 3.5 0 5.3-1.1 5.3-3.1 0-2.1-1.5-3-8.2-4.5-9.6-2.2-17-5-17-15.1 0-8.9 7.1-15.7 18.7-15.7 8.2 0 14.5 2.2 19.7 6.4l-7.2 10c-4.1-3.2-8.7-4.8-12.9-4.8-3.1 0-4.6 1.2-4.6 2.9 0 2.3 1.7 3 8.4 4.5 10.3 2.3 16.8 5.7 16.8 14.9 0 9.8-7.8 16.4-19.7 16.4Z" fill="#F4F1EA"/>
  <circle cx="101" cy="34" r="7" fill="#F4627D"/>
</svg>
